<svg width="40" height="40" viewBox="0 0 40 40" fill="none" xmlns="http://www.w3.org/2000/svg">
<path d="M0 8C0 3.58172 3.58172 0 8 0H32C36.4183 0 40 3.58172 40 8V32C40 36.4183 36.4183 40 32 40H8C3.58172 40 0 36.4183 0 32V8Z" fill="#141824" fill-opacity="0.8"/>
<path d="M8 0.5H32C36.1421 0.5 39.5 3.85786 39.5 8V32C39.5 36.1421 36.1421 39.5 32 39.5H8C3.85786 39.5 0.5 36.1421 0.5 32V8C0.5 3.85786 3.85786 0.5 8 0.5Z" stroke="#00D4FF" stroke-opacity="0.3"/>
<path d="M27.875 34H12.125V6H27.875V34Z" stroke="#E5E7EB"/>
<g clip-path="url(#clip0_1_738)">
<path d="M12.4555 17.4555C12.016 17.8949 12.016 18.6086 12.4555 19.0481L18.0805 24.6731C18.5199 25.1125 19.2336 25.1125 19.6731 24.6731C20.1125 24.2336 20.1125 23.5199 19.6731 23.0805L15.9641 19.375H26.75C27.3723 19.375 27.875 18.8723 27.875 18.25C27.875 17.6277 27.3723 17.125 26.75 17.125H15.9676L19.6695 13.4195C20.109 12.9801 20.109 12.2664 19.6695 11.827C19.2301 11.3875 18.5164 11.3875 18.077 11.827L12.452 17.452L12.4555 17.4555Z" fill="#00D4FF"/>
</g>
<defs>
<clipPath id="clip0_1_738">
<path d="M12.125 9.25H27.875V27.25H12.125V9.25Z" fill="white"/>
</clipPath>
</defs>
</svg>
