<svg width="40" height="40" viewBox="0 0 40 40" fill="none" xmlns="http://www.w3.org/2000/svg">
<path d="M0 8C0 3.58172 3.58172 0 8 0H32C36.4183 0 40 3.58172 40 8V32C40 36.4183 36.4183 40 32 40H8C3.58172 40 0 36.4183 0 32V8Z" fill="#141824" fill-opacity="0.8"/>
<path d="M8 0.5H32C36.1421 0.5 39.5 3.85786 39.5 8V32C39.5 36.1421 36.1421 39.5 32 39.5H8C3.85786 39.5 0.5 36.1421 0.5 32V8C0.5 3.85786 3.85786 0.5 8 0.5Z" stroke="#00D4FF" stroke-opacity="0.3"/>
<path d="M29 34H11V6H29V34Z" stroke="#E5E7EB"/>
<path d="M29 27.25H11V9.25H29V27.25Z" stroke="#E5E7EB"/>
<path d="M12.6734 19.8109L19.0262 25.7418C19.2898 25.9879 19.6379 26.125 20 26.125C20.3621 26.125 20.7102 25.9879 20.9738 25.7418L27.3266 19.8109C28.3953 18.816 29 17.4203 29 15.9613V15.7574C29 13.3 27.2246 11.2047 24.8023 10.8004C23.1992 10.5332 21.568 11.057 20.4219 12.2031L20 12.625L19.5781 12.2031C18.432 11.057 16.8008 10.5332 15.1977 10.8004C12.7754 11.2047 11 13.3 11 15.7574V15.9613C11 17.4203 11.6047 18.816 12.6734 19.8109Z" fill="#00D4FF"/>
</svg>
