<svg width="40" height="40" viewBox="0 0 40 40" fill="none" xmlns="http://www.w3.org/2000/svg">
<path d="M0 8C0 3.58172 3.58172 0 8 0H32C36.4183 0 40 3.58172 40 8V32C40 36.4183 36.4183 40 32 40H8C3.58172 40 0 36.4183 0 32V8Z" fill="#6B4CE6" fill-opacity="0.2"/>
<path d="M8 0.5H32C36.1421 0.5 39.5 3.85786 39.5 8V32C39.5 36.1421 36.1421 39.5 32 39.5H8C3.85786 39.5 0.5 36.1421 0.5 32V8C0.5 3.85786 3.85786 0.5 8 0.5Z" stroke="#6B4CE6" stroke-opacity="0.5"/>
<path d="M27 32H13V8H27V32Z" stroke="#E5E7EB"/>
<path d="M27 26H13V10H27V26Z" stroke="#E5E7EB"/>
<path d="M13.2937 17.2938C12.9031 17.6844 12.9031 18.3188 13.2937 18.7094L18.2937 23.7094C18.6843 24.1 19.3187 24.1 19.7093 23.7094C20.1 23.3188 20.1 22.6844 19.7093 22.2938L16.4125 19H26C26.5531 19 27 18.5531 27 18C27 17.4469 26.5531 17 26 17H16.4156L19.7062 13.7063C20.0968 13.3156 20.0968 12.6813 19.7062 12.2906C19.3156 11.9 18.6812 11.9 18.2906 12.2906L13.2906 17.2906L13.2937 17.2938Z" fill="#00D4FF"/>
</svg>
