<svg width="12" height="16" viewBox="0 0 12 16" fill="none" xmlns="http://www.w3.org/2000/svg">
<path d="M12 16H0V0H12V16Z" stroke="#E5E7EB"/>
<g clip-path="url(#clip0_1_601)">
<path d="M2.73516 1.29219C2.84063 1.14922 3.00938 1.0625 3.18751 1.0625H8.81251C8.99063 1.0625 9.15938 1.14687 9.26485 1.29219L11.8899 4.85469C12.0492 5.07031 12.0328 5.36797 11.8547 5.56719L6.4172 11.5672C6.31173 11.6844 6.15938 11.7523 6.00001 11.7523C5.84063 11.7523 5.69063 11.6844 5.58282 11.5672L0.145321 5.56719C-0.0351475 5.36797 -0.04921 5.07031 0.110165 4.85469L2.73516 1.29219ZM3.63751 2.225C3.56017 2.28359 3.53907 2.38906 3.58829 2.47109L4.9336 4.71172L1.4836 5C1.38751 5.00703 1.31251 5.08906 1.31251 5.1875C1.31251 5.28594 1.38751 5.36562 1.4836 5.375L5.9836 5.75C5.99298 5.75 6.0047 5.75 6.01407 5.75L10.5141 5.375C10.6102 5.36797 10.6852 5.28594 10.6852 5.1875C10.6852 5.08906 10.6102 5.00938 10.5141 5L7.06641 4.71406L8.41173 2.47344C8.46095 2.39141 8.43985 2.28359 8.36251 2.22734C8.28516 2.17109 8.17735 2.18047 8.11173 2.25078L6.00001 4.53594L3.88829 2.24844C3.82267 2.17812 3.71485 2.16875 3.63751 2.225Z" fill="#00D4FF"/>
</g>
<defs>
<clipPath id="clip0_1_601">
<path d="M0 0.5H12V12.5H0V0.5Z" fill="white"/>
</clipPath>
</defs>
</svg>
