<svg width="23" height="28" viewBox="0 0 23 28" fill="none" xmlns="http://www.w3.org/2000/svg">
<path d="M22.5 28H0V0H22.5V28Z" stroke="#E5E7EB"/>
<g clip-path="url(#clip0_1_1012)">
<path d="M22.4922 12.4805C22.4922 13.1836 21.9062 13.7344 21.2422 13.7344H19.9922L20.0195 19.9922C20.0195 20.0977 20.0117 20.2031 20 20.3086V20.9375C20 21.8008 19.3008 22.5 18.4375 22.5H17.8125C17.7695 22.5 17.7266 22.5 17.6836 22.4961C17.6289 22.5 17.5742 22.5 17.5195 22.5H16.25H15.3125C14.4492 22.5 13.75 21.8008 13.75 20.9375V20V17.5C13.75 16.8086 13.1914 16.25 12.5 16.25H10C9.30859 16.25 8.75 16.8086 8.75 17.5V20V20.9375C8.75 21.8008 8.05078 22.5 7.1875 22.5H6.25H5.00391C4.94531 22.5 4.88672 22.4961 4.82812 22.4922C4.78125 22.4961 4.73438 22.5 4.6875 22.5H4.0625C3.19922 22.5 2.5 21.8008 2.5 20.9375V16.5625C2.5 16.5273 2.5 16.4883 2.50391 16.4531V13.7344H1.25C0.546875 13.7344 0 13.1875 0 12.4805C0 12.1289 0.117188 11.8164 0.390625 11.543L10.4062 2.8125C10.6797 2.53906 10.9922 2.5 11.2656 2.5C11.5391 2.5 11.8516 2.57812 12.0859 2.77344L22.0625 11.543C22.375 11.8164 22.5312 12.1289 22.4922 12.4805Z" fill="#9CA3AF"/>
</g>
<defs>
<clipPath id="clip0_1_1012">
<path d="M0 2.5H22.5V22.5H0V2.5Z" fill="white"/>
</clipPath>
</defs>
</svg>
