<svg width="25" height="28" viewBox="0 0 25 28" fill="none" xmlns="http://www.w3.org/2000/svg">
<path d="M25 28H0V0H25V28Z" stroke="#E5E7EB"/>
<g clip-path="url(#clip0_1_1014)">
<path d="M5.625 2.5C6.4538 2.5 7.24866 2.82924 7.83471 3.41529C8.42076 4.00134 8.75 4.7962 8.75 5.625C8.75 6.4538 8.42076 7.24866 7.83471 7.83471C7.24866 8.42076 6.4538 8.75 5.625 8.75C4.7962 8.75 4.00134 8.42076 3.41529 7.83471C2.82924 7.24866 2.5 6.4538 2.5 5.625C2.5 4.7962 2.82924 4.00134 3.41529 3.41529C4.00134 2.82924 4.7962 2.5 5.625 2.5ZM20 2.5C20.8288 2.5 21.6237 2.82924 22.2097 3.41529C22.7958 4.00134 23.125 4.7962 23.125 5.625C23.125 6.4538 22.7958 7.24866 22.2097 7.83471C21.6237 8.42076 20.8288 8.75 20 8.75C19.1712 8.75 18.3763 8.42076 17.7903 7.83471C17.2042 7.24866 16.875 6.4538 16.875 5.625C16.875 4.7962 17.2042 4.00134 17.7903 3.41529C18.3763 2.82924 19.1712 2.5 20 2.5ZM0 14.168C0 11.8672 1.86719 10 4.16797 10H5.83594C6.45703 10 7.04687 10.1367 7.57812 10.3789C7.52734 10.6602 7.50391 10.9531 7.50391 11.25C7.50391 12.7422 8.16016 14.082 9.19531 15C9.1875 15 9.17969 15 9.16797 15H0.832031C0.375 15 0 14.625 0 14.168ZM15.832 15C15.8242 15 15.8164 15 15.8047 15C16.8438 14.082 17.4961 12.7422 17.4961 11.25C17.4961 10.9531 17.4688 10.6641 17.4219 10.3789C17.9531 10.1328 18.543 10 19.1641 10H20.832C23.1328 10 25 11.8672 25 14.168C25 14.6289 24.625 15 24.168 15H15.832ZM8.75 11.25C8.75 10.2554 9.14509 9.30161 9.84835 8.59835C10.5516 7.89509 11.5054 7.5 12.5 7.5C13.4946 7.5 14.4484 7.89509 15.1517 8.59835C15.8549 9.30161 16.25 10.2554 16.25 11.25C16.25 12.2446 15.8549 13.1984 15.1517 13.9017C14.4484 14.6049 13.4946 15 12.5 15C11.5054 15 10.5516 14.6049 9.84835 13.9017C9.14509 13.1984 8.75 12.2446 8.75 11.25ZM5 21.457C5 18.582 7.33203 16.25 10.207 16.25H14.793C17.668 16.25 20 18.582 20 21.457C20 22.0312 19.5352 22.5 18.957 22.5H6.04297C5.46875 22.5 5 22.0352 5 21.457Z" fill="#00FFFF"/>
</g>
<defs>
<clipPath id="clip0_1_1014">
<path d="M0 2.5H25V22.5H0V2.5Z" fill="white"/>
</clipPath>
</defs>
</svg>
