<svg width="23" height="28" viewBox="0 0 23 28" fill="none" xmlns="http://www.w3.org/2000/svg">
<path d="M22.5 28H0V0H22.5V28Z" stroke="#E5E7EB"/>
<g clip-path="url(#clip0_1_1016)">
<path d="M15.625 2.5H6.875C5.83984 2.5 4.99609 3.35156 5.03516 4.38281C5.04297 4.58984 5.05078 4.79688 5.0625 5H0.9375C0.417969 5 0 5.41797 0 5.9375C0 9.55469 1.30859 12.0703 3.06641 13.7773C4.79687 15.4609 6.90625 16.3086 8.46094 16.7383C9.375 16.9922 10 17.7539 10 18.5195C10 19.3359 9.33594 20 8.51953 20H7.5C6.80859 20 6.25 20.5586 6.25 21.25C6.25 21.9414 6.80859 22.5 7.5 22.5H15C15.6914 22.5 16.25 21.9414 16.25 21.25C16.25 20.5586 15.6914 20 15 20H13.9805C13.1641 20 12.5 19.3359 12.5 18.5195C12.5 17.7539 13.1211 16.9883 14.0391 16.7383C15.5977 16.3086 17.707 15.4609 19.4375 13.7773C21.1914 12.0703 22.5 9.55469 22.5 5.9375C22.5 5.41797 22.082 5 21.5625 5H17.4375C17.4492 4.79688 17.457 4.59375 17.4648 4.38281C17.5039 3.35156 16.6602 2.5 15.625 2.5ZM1.91016 6.875H5.20703C5.5625 10.3945 6.34766 12.7461 7.23437 14.3203C6.26172 13.8906 5.25 13.2852 4.375 12.4336C3.125 11.2188 2.10938 9.46484 1.91406 6.875H1.91016ZM18.1289 12.4336C17.2539 13.2852 16.2422 13.8906 15.2695 14.3203C16.1562 12.7461 16.9414 10.3945 17.2969 6.875H20.5938C20.3945 9.46484 19.3789 11.2188 18.1328 12.4336H18.1289Z" fill="#9CA3AF"/>
</g>
<defs>
<clipPath id="clip0_1_1016">
<path d="M0 2.5H22.5V22.5H0V2.5Z" fill="white"/>
</clipPath>
</defs>
</svg>
