<svg width="18" height="28" viewBox="0 0 18 28" fill="none" xmlns="http://www.w3.org/2000/svg">
<path d="M17.5 28H0V0H17.5V28Z" stroke="#E5E7EB"/>
<g clip-path="url(#clip0_1_1018)">
<path d="M8.75 12.5C10.0761 12.5 11.3479 11.9732 12.2855 11.0355C13.2232 10.0979 13.75 8.82608 13.75 7.5C13.75 6.17392 13.2232 4.90215 12.2855 3.96447C11.3479 3.02678 10.0761 2.5 8.75 2.5C7.42392 2.5 6.15215 3.02678 5.21447 3.96447C4.27678 4.90215 3.75 6.17392 3.75 7.5C3.75 8.82608 4.27678 10.0979 5.21447 11.0355C6.15215 11.9732 7.42392 12.5 8.75 12.5ZM6.96484 14.375C3.11719 14.375 0 17.4922 0 21.3398C0 21.9805 0.519531 22.5 1.16016 22.5H16.3398C16.9805 22.5 17.5 21.9805 17.5 21.3398C17.5 17.4922 14.3828 14.375 10.5352 14.375H6.96484Z" fill="#9CA3AF"/>
</g>
<defs>
<clipPath id="clip0_1_1018">
<path d="M0 2.5H17.5V22.5H0V2.5Z" fill="white"/>
</clipPath>
</defs>
</svg>
